<svg width="100" height="100" viewBox="0 0 100 100" fill="none" xmlns="http://www.w3.org/2000/svg" style="width: 100px; height: 100px;"><style>
     .line-ribbon1 {animation:line-ribbon1-tick 2s infinite; stroke-dasharray: 110; stroke-dashoffset: 110;}
     @keyframes line-ribbon1-tick {
         20%{stroke-dashoffset: 110;}
         60%{stroke-dashoffset: 0;}
         100%{stroke-dashoffset: 0;}
     }
     @media (prefers-reduced-motion: reduce) {
         .line-ribbon1 {
             animation: none;
         }
     }
    </style><g filter="url(#filter0_ii)"><path class="fill1" d="M78 15H22C21.4477 15 21 15.4477 21 16V84.1493C21 84.9444 21.883 85.4215 22.548 84.9858L49.452 67.3591C49.7848 67.141 50.2152 67.141 50.548 67.3591L77.452 84.9858C78.117 85.4215 79 84.9444 79 84.1493V16C79 15.4477 78.5523 15 78 15Z" fill="#fff" stroke-width="3.4px"></path></g><path class="stroke1" d="M78 15H22C21.4477 15 21 15.4477 21 16V84.1493C21 84.9444 21.883 85.4215 22.548 84.9858L49.452 67.3591C49.7848 67.141 50.2152 67.141 50.548 67.3591L77.452 84.9858C78.117 85.4215 79 84.9444 79 84.1493V16C79 15.4477 78.5523 15 78 15Z" stroke="#000" stroke-width="3.4px" style="animation-duration: 2s;"></path><path class="line-ribbon1 stroke2" d="M34 44.8L43.4286 54L67 31" stroke="#000" stroke-width="3.4px" style="animation-duration: 2s;"></path><defs><filter id="filter0_ii" x="18" y="10" width="66" height="78.1526" filterUnits="userSpaceOnUse" color-interpolation-filters="sRGB"><feFlood flood-opacity="0" result="BackgroundImageFix"></feFlood><feBlend mode="normal" in="SourceGraphic" in2="BackgroundImageFix" result="shape"></feBlend><feColorMatrix in="SourceAlpha" type="matrix" values="0 0 0 0 0 0 0 0 0 0 0 0 0 0 0 0 0 0 127 0" result="hardAlpha"></feColorMatrix><feOffset dx="4" dy="-4"></feOffset><feGaussianBlur stdDeviation="2"></feGaussianBlur><feComposite in2="hardAlpha" operator="arithmetic" k2="-1" k3="1"></feComposite><feColorMatrix type="matrix" values="0 0 0 0 0 0 0 0 0 0 0 0 0 0 0 0 0 0 0.3 0"></feColorMatrix><feBlend mode="normal" in2="shape" result="effect1_innerShadow"></feBlend><feColorMatrix in="SourceAlpha" type="matrix" values="0 0 0 0 0 0 0 0 0 0 0 0 0 0 0 0 0 0 127 0" result="hardAlpha"></feColorMatrix><feOffset dx="-4" dy="4"></feOffset><feGaussianBlur stdDeviation="1"></feGaussianBlur><feComposite in2="hardAlpha" operator="arithmetic" k2="-1" k3="1"></feComposite><feColorMatrix type="matrix" values="0 0 0 0 1 0 0 0 0 1 0 0 0 0 1 0 0 0 0.3 0"></feColorMatrix><feBlend mode="normal" in2="effect1_innerShadow" result="effect2_innerShadow"></feBlend></filter></defs></svg>